<svg id="Layer_1" enable-background="new 0 0 512 512" height="512" viewBox="0 0 512 512" width="512" xmlns="http://www.w3.org/2000/svg"><path d="m464 88h-40v-40c0-26.468-21.533-48-48-48-10.885 0-228.843 0-240 0-26.467 0-48 21.532-48 48v184h-40c-26.467 0-48 21.533-48 48v80c0 26.467 21.533 48 48 48h40v56c0 26.468 21.533 48 48 48h240c26.467 0 48-21.532 48-48v-200h40c26.467 0 48-21.533 48-48v-80c0-26.467-21.533-48-48-48zm-432 272v-80c0-8.822 7.178-16 16-16h160c8.822 0 16 7.178 16 16v80c0 8.822-7.178 16-16 16h-16c-8.836 0-16 7.163-16 16v12.808l-48.229-26.794c-5.179-2.877-3.043-2.014-79.771-2.014-8.822 0-16-7.178-16-16zm344 120h-240c-8.822 0-16-7.178-16-16v-53.697l64.229 35.683c10.65 5.917 23.771-1.799 23.771-13.986v-24c26.467 0 48-21.533 48-48v-80c0-26.467-21.533-48-48-48h-88v-184c0-8.822 7.178-16 16-16h36.468l4.353 13.06c2.178 6.533 8.292 10.94 15.179 10.94h128c6.887 0 13.001-4.407 15.179-10.94l4.353-13.06h36.468c8.822 0 16 7.178 16 16v40h-88c-26.467 0-48 21.533-48 48v80c0 26.467 21.533 48 48 48v24c0 8.836 7.173 16 16 16 5.873 0 3.351.441 72-37.697v197.697c0 8.822-7.178 16-16 16zm104-264c0 8.822-7.178 16-16 16h-72c-5.611 0-2.863-.712-56 28.808v-12.808c0-8.837-7.164-16-16-16h-16c-8.822 0-16-7.178-16-16v-80c0-8.822 7.178-16 16-16h160c8.822 0 16 7.178 16 16z"/><path d="m200 320c0-8.837-7.164-16-16-16h-112c-8.836 0-16 7.163-16 16s7.164 16 16 16h112c8.836 0 16-7.163 16-16z"/><path d="m440 160h-112c-8.836 0-16 7.163-16 16s7.164 16 16 16h112c8.836 0 16-7.163 16-16s-7.164-16-16-16z"/></svg>